<svg xmlns="http://www.w3.org/2000/svg" viewBox="0 0 100 100" width="100%" height="100%">
  <defs>
    <linearGradient id="brandGrad" x1="0%" y1="0%" x2="100%" y2="100%">
      <stop offset="0%" stop-color="#5844ff" />
      <stop offset="100%" stop-color="#a855f7" />
    </linearGradient>
    <linearGradient id="skyGrad" x1="0%" y1="0%" x2="100%" y2="100%">
      <stop offset="0%" stop-color="#3b82f6" />
      <stop offset="100%" stop-color="#06b6d4" />
    </linearGradient>
  </defs>
  <!-- Beautiful interlocking ribbons denoting care, connection and healing -->
  <path d="M 32,58 C 22,48 22,32 32,22 C 42,12 58,12 68,22 L 68,22 C 78,32 78,48 68,58 L 50,76 L 32,58 Z" 
        fill="none" 
        stroke="url(#brandGrad)" 
        stroke-width="10" 
        stroke-linecap="round" 
        stroke-linejoin="round" />
  <path d="M 68,42 C 78,52 78,68 68,78 C 58,88 42,88 32,78 L 32,78 C 22,68 22,52 32,42 L 50,24" 
        fill="none" 
        stroke="url(#skyGrad)" 
        stroke-width="10" 
        stroke-linecap="round" 
        stroke-linejoin="round" />
  <circle cx="50" cy="50" r="5" fill="#5844ff" />
</svg>
